<svg width="848" height="108" viewBox="0 0 848 108" fill="none" xmlns="http://www.w3.org/2000/svg"><path d="M212.173 68.782l-6.587-18.787L199 68.782h13.173zm3.892 11.153h-20.957l-3.369 9.805h-15.643l21.482-56.436h16.017l21.482 56.436h-15.644l-3.368-9.805zm40.101-46.631V89.74h-14.671V33.304h14.671zm26.46 25.224h2.769c2.894 0 5.115-.599 6.661-1.796 1.547-1.198 2.321-2.92 2.321-5.165s-.774-3.967-2.321-5.164c-1.546-1.198-3.767-1.797-6.661-1.797h-2.769v13.922zm32.259 31.212h-18.263l-13.996-21.706V89.74h-14.671V33.304h22.829c3.144 0 5.888.474 8.233 1.422 2.346.898 4.267 2.146 5.764 3.743a15.253 15.253 0 0 1 3.443 5.538c.798 2.096 1.197 4.342 1.197 6.737 0 4.291-1.048 7.784-3.143 10.479-2.046 2.644-5.09 4.44-9.132 5.389l17.739 23.128zm72.216-37.574c-3.393-4.142-7.585-6.212-12.575-6.212-2.195 0-4.241.399-6.137 1.197a14.66 14.66 0 0 0-4.791 3.293c-1.347 1.348-2.42 2.97-3.218 4.866-.749 1.896-1.123 3.942-1.123 6.137 0 2.246.374 4.316 1.123 6.212.798 1.897 1.871 3.543 3.218 4.94a15.53 15.53 0 0 0 4.865 3.294c1.847.798 3.843 1.197 5.988 1.197 4.691 0 8.907-1.996 12.65-5.987v17.364l-1.497.524c-2.246.799-4.342 1.372-6.288 1.722a28.639 28.639 0 0 1-5.763.599c-3.892 0-7.634-.724-11.227-2.171a30.67 30.67 0 0 1-9.431-6.213c-2.694-2.694-4.865-5.863-6.512-9.505-1.646-3.693-2.47-7.71-2.47-12.05 0-4.342.799-8.309 2.395-11.902 1.647-3.642 3.818-6.76 6.512-9.356 2.745-2.644 5.913-4.69 9.506-6.137a29.096 29.096 0 0 1 11.302-2.246c2.245 0 4.441.25 6.587.749 2.195.449 4.49 1.172 6.886 2.17v17.515zm41.284 16.616l-6.587-18.787-6.587 18.787h13.174zm3.892 11.153h-20.958l-3.368 9.805h-15.643l21.481-56.436h16.018l21.481 56.436h-15.643l-3.368-9.805zm40.1-21.407h2.77c2.894 0 5.114-.599 6.661-1.796 1.547-1.198 2.32-2.92 2.32-5.165s-.773-3.967-2.32-5.164c-1.547-1.198-3.767-1.797-6.661-1.797h-2.77v13.922zm32.26 31.212h-18.263l-13.997-21.706V89.74h-14.67V33.304h22.829c3.143 0 5.888.474 8.233 1.422 2.345.898 4.266 2.146 5.763 3.743a15.226 15.226 0 0 1 3.443 5.538c.799 2.096 1.198 4.342 1.198 6.737 0 4.291-1.048 7.784-3.144 10.479-2.046 2.644-5.089 4.44-9.131 5.389l17.739 23.128zm32.874-31.586h29.116c0 2.994-.124 5.713-.374 8.158-.249 2.445-.748 4.716-1.497 6.811-1.048 2.944-2.47 5.564-4.266 7.86a25.661 25.661 0 0 1-6.362 5.688c-2.395 1.497-5.04 2.645-7.934 3.443s-5.938 1.197-9.132 1.197c-4.391 0-8.408-.723-12.05-2.17-3.593-1.447-6.687-3.468-9.281-6.063-2.595-2.644-4.616-5.788-6.063-9.43-1.447-3.693-2.171-7.76-2.171-12.2 0-4.392.699-8.409 2.096-12.051 1.447-3.693 3.468-6.837 6.063-9.431 2.644-2.595 5.813-4.616 9.505-6.063 3.693-1.447 7.81-2.17 12.35-2.17 5.889 0 11.053 1.272 15.494 3.817 4.441 2.544 7.959 6.486 10.554 11.826l-13.922 5.763c-1.298-3.094-2.994-5.314-5.09-6.662-2.046-1.347-4.391-2.02-7.036-2.02-2.195 0-4.191.424-5.987 1.272-1.797.798-3.344 1.971-4.641 3.518-1.247 1.497-2.245 3.318-2.994 5.464-.698 2.145-1.048 4.54-1.048 7.185 0 2.395.3 4.616.898 6.662.649 2.045 1.597 3.817 2.845 5.314 1.247 1.497 2.794 2.67 4.64 3.518 1.846.798 3.992 1.197 6.437 1.197 1.447 0 2.844-.15 4.192-.449 1.347-.349 2.544-.873 3.592-1.572a9.175 9.175 0 0 0 2.695-2.844c.698-1.147 1.172-2.545 1.422-4.191h-12.051V58.154zm51.188 3.368c0 2.245.424 4.316 1.272 6.212a15.704 15.704 0 0 0 3.443 4.94 16.203 16.203 0 0 0 5.015 3.294 16.952 16.952 0 0 0 6.138 1.122c2.145 0 4.166-.374 6.062-1.122 1.946-.799 3.643-1.897 5.09-3.294a15.139 15.139 0 0 0 3.518-4.94c.848-1.896 1.272-3.967 1.272-6.212 0-2.245-.424-4.316-1.272-6.212a15.139 15.139 0 0 0-3.518-4.94c-1.447-1.398-3.144-2.47-5.09-3.219-1.896-.798-3.917-1.197-6.062-1.197-2.146 0-4.192.399-6.138 1.197a15.16 15.16 0 0 0-5.015 3.219 15.704 15.704 0 0 0-3.443 4.94c-.848 1.896-1.272 3.966-1.272 6.212zm-15.344 0c0-4.191.773-8.084 2.32-11.676 1.547-3.643 3.693-6.811 6.437-9.506 2.745-2.695 6.013-4.79 9.805-6.287 3.842-1.547 8.059-2.32 12.65-2.32 4.54 0 8.732.773 12.574 2.32 3.842 1.497 7.136 3.592 9.88 6.287 2.794 2.694 4.965 5.863 6.512 9.506 1.547 3.592 2.32 7.485 2.32 11.676s-.773 8.108-2.32 11.751a28.783 28.783 0 0 1-6.512 9.431c-2.744 2.695-6.038 4.815-9.88 6.362-3.842 1.497-8.034 2.245-12.574 2.245-4.591 0-8.808-.748-12.65-2.245-3.792-1.547-7.06-3.668-9.805-6.362-2.744-2.694-4.89-5.838-6.437-9.43-1.547-3.644-2.32-7.56-2.32-11.752zM702.78 41.717l-6.908 4.093c-1.291-2.241-2.521-3.703-3.691-4.385-1.218-.78-2.79-1.17-4.715-1.17-2.363 0-4.324.67-5.884 2.01-1.559 1.316-2.339 2.973-2.339 4.97 0 2.754 2.047 4.971 6.14 6.652l5.629 2.303c4.58 1.851 7.93 4.117 10.05 6.797 2.12 2.656 3.18 5.921 3.18 9.795 0 5.19-1.73 9.478-5.19 12.865-3.484 3.41-7.809 5.116-12.974 5.116-4.898 0-8.942-1.45-12.134-4.35-3.143-2.898-5.104-6.98-5.884-12.242l8.625-1.9c.39 3.313 1.072 5.603 2.047 6.87 1.754 2.437 4.312 3.655 7.675 3.655 2.655 0 4.86-.89 6.615-2.668 1.754-1.779 2.631-4.032 2.631-6.761 0-1.097-.158-2.096-.475-2.997a7.037 7.037 0 0 0-1.425-2.522c-.634-.78-1.462-1.498-2.486-2.156-1.023-.682-2.241-1.328-3.654-1.937l-5.446-2.266c-7.723-3.265-11.585-8.04-11.585-14.326 0-4.24 1.62-7.785 4.861-10.636 3.24-2.875 7.272-4.312 12.097-4.312 6.505 0 11.585 3.167 15.24 9.502zm8.917 19.553c0-7.943 2.912-14.765 8.735-20.467 5.799-5.7 12.767-8.552 20.905-8.552 8.04 0 14.935 2.875 20.685 8.626 5.775 5.75 8.662 12.657 8.662 20.722 0 8.113-2.9 14.996-8.698 20.649-5.823 5.676-12.853 8.515-21.088 8.515-7.285 0-13.827-2.522-19.626-7.565-6.383-5.58-9.575-12.89-9.575-21.928zm8.589.11c0 6.237 2.095 11.365 6.286 15.386 4.166 4.02 8.978 6.03 14.436 6.03 5.92 0 10.915-2.047 14.984-6.14 4.069-4.142 6.103-9.186 6.103-15.13 0-6.019-2.01-11.062-6.03-15.13-3.996-4.094-8.942-6.14-14.838-6.14-5.872 0-10.83 2.046-14.875 6.14-4.044 4.044-6.066 9.038-6.066 14.983zm89.284-20.065h-19.662v13.559h18.967v8.004h-18.967V89.74h-8.516V33.31h28.178v8.004zm25.473 0V89.74h-8.515V41.315h-12.975v-8.004h34.428v8.004h-12.938z" fill="#fff"/><path fill-rule="evenodd" clip-rule="evenodd" d="M34.73 98.158c-14.11 0-25.55-11.44-25.55-25.55 0-14.112 11.44-25.55 25.55-25.55 14.112 0 25.551 11.438 25.551 25.55h9.16c0-19.17-15.54-34.71-34.71-34.71S.02 53.437.02 72.607s15.54 34.71 34.71 34.71h48.738v-9.16H34.73z" fill="#fff"/><path d="M83.468 98.157c24.387 0 44.157-19.77 44.157-44.156 0-24.388-19.77-44.157-44.157-44.157-13.788 0-26.107 6.32-34.207 16.23a48.51 48.51 0 0 0-9.931-1.99C48.916 9.966 65.105.684 83.468.684c29.446 0 53.317 23.87 53.317 53.317 0 29.446-23.871 53.317-53.317 53.317v-9.16z" fill="#fff"/></svg>