<svg xmlns="http://www.w3.org/2000/svg" width="480" height="480" viewBox="0 0 480 480"><g transform="translate(-720 -300)"><g transform="translate(720 300)" fill="#fff" stroke="#707070" stroke-width="2"><circle cx="240" cy="240" r="240" stroke="none"/><circle cx="240" cy="240" r="239" fill="none"/></g><path d="M125.237,157.642l96.239,96.239a16.913,16.913,0,0,1,0,23.989l-15.993,15.993a16.913,16.913,0,0,1-23.989,0l-68.287-68.145L44.991,293.933a16.913,16.913,0,0,1-23.989,0L4.939,277.941a16.913,16.913,0,0,1,0-23.989l96.239-96.239A16.935,16.935,0,0,1,125.237,157.642Z" transform="translate(847.05 313.765)" fill="#7fb347"/></g></svg>